<svg xmlns="http://www.w3.org/2000/svg" width="65.174" height="65.444" viewBox="0 0 65.174 65.444">
  <g id="WhastApp-Icon-SVG-ij8yghj" transform="translate(-1031 -902.444)">
    <path id="Path_134855" data-name="Path 134855" d="M33.39,16.444A31.608,31.608,0,0,0,1.606,47.875,30.964,30.964,0,0,0,4.764,61.467L0,81.888l20.405-5.34A31.94,31.94,0,0,0,33.39,79.309a31.434,31.434,0,1,0,0-62.865" transform="translate(1031 886)" fill="#00ac70"/>
    <path id="Path_134856" data-name="Path 134856" d="M3.734,73.378l3.912-14.43a26.324,26.324,0,0,1-3.38-12.872A26.945,26.945,0,1,1,31.208,72.72,27.12,27.12,0,0,1,18.4,69.493Zm15.4-9.293.924.545a22,22,0,0,0,11.154,3.056A21.61,21.61,0,1,0,9.359,46.076a21.363,21.363,0,0,0,3.195,11.2l.568.92-2.183,8.057Z" transform="translate(1033.447 887.958)" fill="#fff"/>
    <path id="Path_134857" data-name="Path 134857" d="M35.511,44.053c-1.109-.656-2.553-1.389-3.859-.859-1,.406-1.642,1.957-2.291,2.75a.967.967,0,0,1-1.243.265A17.416,17.416,0,0,1,19.4,38.82a1.049,1.049,0,0,1,.136-1.443,5.822,5.822,0,0,0,1.584-2.544,5.5,5.5,0,0,0-.708-3.011c-.525-1.119-1.112-2.716-2.248-3.35a3.1,3.1,0,0,0-3.344.492,6.683,6.683,0,0,0-2.354,5.32,7.325,7.325,0,0,0,.212,1.688A13.878,13.878,0,0,0,14.311,39.7a29.249,29.249,0,0,0,1.71,2.572,26.274,26.274,0,0,0,7.414,6.808,22.467,22.467,0,0,0,4.625,2.173c1.811.593,3.425,1.208,5.381.841a6.5,6.5,0,0,0,4.882-3.59,3.094,3.094,0,0,0,.227-1.831c-.28-1.263-2.006-2.013-3.039-2.624" transform="translate(1039.167 893.686)" fill="#fff" fill-rule="evenodd"/>
  </g>
</svg>
